<?xml version="1.0" encoding="utf-8"?>
<!-- Designed by Vexels.com - 2020 All Rights Reserved - https://vexels.com/terms-and-conditions/  -->
<svg version="1.1" id="Capa_1" xmlns="http://www.w3.org/2000/svg" xmlns:xlink="http://www.w3.org/1999/xlink" x="0px" y="0px"
	 viewBox="0 0 1200 1200" enable-background="new 0 0 1200 1200" xml:space="preserve">
<g>
	<g>
		<path fill="#74A85E" d="M599.519,513.568c2.629,11.487,4.658,23.009,6.436,34.759c1.094,7.231,2.573,14.727,3.088,22.179
			c12.25-2.98,24.796-4.637,37.271-4.973c-4.721-16.216-6.838-33.061-9.202-49.88c-1.591-11.318-3.008-22.61-4.112-33.936
			C622.023,492.513,610.815,503.085,599.519,513.568z"/>
		<path fill="#74A85E" d="M655.552,898.309c9.164,40.02,17.004,79.495,6.195,120.661c-8.596,32.738-29.737,62.241-60.93,76.649
			c-35.437,16.368-72.565,4.758-90.964-30.086c-8.023-15.193-10.624-35.079-2.597-50.891c7.035-13.857,21.617-23.06,36.398-19.013
			c1.694-0.357,3.544-0.242,5.365,0.578c15.819,7.12,32.896-4.145,30.544-21.503c-1.697-12.513-12.534-22.131-23.901-26.389
			c-26.022-9.748-55.569,6.748-69.259,28.806c-24.289,39.135-18.128,105.938,20.811,134.229
			c40.704,29.574,103.478,19.68,142.05-8.517c33.509-24.496,54.281-70.253,56.92-111.107c2.296-35.537-7.132-69.833-12.993-104.544
			C680.973,891.99,668.353,895.706,655.552,898.309z"/>
		<path fill="#BADEA9" d="M746.191,622.884c-46.037-34.528-113.2-43.016-164.119-14.55c-27.806,15.545-48.914,38.196-57.765,69.076
			c-1.995,6.961-2.876,14.122-2.683,21.371c0.075,2.81,0.16,5.849,0.735,8.632c1.015,4.912,0.398,6.525,5.03,5.953
			c8.205-1.013,14.325-30.807,18.633-38.253c29.708-51.351,98.47-56.634,147.878-32.985c13.312,6.371,26.789,16.702,36.185,28.094
			c9.808,11.89,11.832,25.306,14.503,39.994c5.632,30.968-0.804,56.308-19.476,82.047c-38.274,52.761-118.064,61.499-177.025,45.096
			c-51.784-14.406-94.917-57.85-105.583-110.803c-5.581-27.707-5.717-58.049,4.335-84.738c11.401-30.27,32.61-55.32,55.221-77.915
			c43.039-43.009,90.893-80.914,132.825-125.081c42.371-44.629,79.915-95.364,85.48-158.51c3.124-35.45,7.492-71.161-0.386-106.231
			c-6.707-29.86-20.832-59.109-44.35-79.416c-11.867-10.247-27.07-17.948-42.918-12.942c-14.999,4.738-27.948,18.215-38.091,29.792
			c-24.585,28.06-31.791,64.504-32.812,100.908c-1.012,36.052,4.296,71.869,8.665,107.553c3.077,25.134,5.537,50.33,8.168,75.509
			c8.006-9.706,15.676-19.685,22.867-30.018c3.173-4.559,6.294-9.307,9.34-14.194c-7.194-30.822-11.502-61.938-12.873-93.622
			c-1.232-28.482-2.398-60.714,6.3-88.309c5.355-16.99,22.879-31.935,38.602-14.846c16.976,18.452,22.889,51.236,24.128,75.267
			c1.629,31.593-5.92,63.188-18.47,92.014c-26.601,61.102-74.88,112.868-123.313,157.472c-26.13,24.065-51.492,47.546-72.405,76.504
			c-9.86,13.653-19.794,27.956-27.209,43.111c-7.578,15.486-11.113,32.618-16.323,48.965
			c-10.855,34.062-14.423,75.343,1.625,108.802c13.197,27.516,29.882,51.028,52.64,71.375
			c43.039,38.479,104.605,53.234,161.244,49.684c59.974-3.758,123.945-38.384,151.464-93.355
			C802.723,731.469,795.028,659.512,746.191,622.884z"/>
		<path fill="#74A85E" d="M642.886,785.361c1.305,7.933,3.223,16.493,3.769,24.917c10.417-2.802,20.238-6.871,29.211-12.284
			c-3.018-9.625-4.31-20.197-5.704-29.459c-2.119-14.081-4.052-28.191-6.148-42.275c-2.163-14.54-4.192-29.097-6.28-43.647
			c-1.189-8.287-2.96-16.81-3.246-25.253c-11.477-2.319-23.375-2.795-34.619-1.198c8.24,25.477,10.972,53.295,15.205,79.405
			C637.763,752.151,640.159,768.781,642.886,785.361z"/>
	</g>
	<g>
		<g>
			<path fill="#2B2A30" d="M629.608,351.075c-7.017-37.679-11.607-75.983-11.921-114.337c-0.132-16.121,0.048-32.596,2.151-48.606
				c1.087-8.271,5.075-35.416,14.941-18.782c37.122,62.588,6.18,140.778-31.377,194.782c-20.617,29.645-44.976,56.541-70.83,81.681
				c-25.52,24.815-53.343,46.922-76.387,74.216c-21.028,24.907-42.106,52.866-53.408,83.681
				c-5.742,15.654-10.086,31.921-15.192,47.797c-6.032,18.755-6.741,35.835-5.881,55.375
				c5.461,124.14,133.394,202.534,249.108,193.466c59.878-4.692,119.374-34.875,155.571-83.399
				c34.672-46.48,42.887-116.694,17.125-169.256c-23.645-48.242-79.018-75.834-130.31-82.171c-59.6-7.364-127,17.991-158.701,71.343
				c-12.956,21.805-20.518,50.699-15.116,75.885c5.738,26.75,35.921,35.626,53.437,13.149c8.977-11.519,10.182-26.63,17.491-39.033
				c7.438-12.623,19.228-22.22,32.789-27.661c28.636-11.49,67.618-5.098,92.109,13.189c15.108,11.282,20.51,21.04,23.545,39.233
				c3.153,18.898,2.899,32.37-6.689,49.617c-18.862,33.929-53.059,49.569-90.929,52.391
				c-58.999,4.396-124.656-20.033-144.298-80.763c-9.207-28.466-9.759-62.198,2.992-89.599
				c14.272-30.67,40.083-55.202,64.131-78.273c45.437-43.591,94.095-84.163,134.962-132.287
				c19.268-22.69,37.248-47.055,50.142-73.993c13.783-28.795,19.969-58.669,22.034-90.415c2.298-35.31,5.931-68.288-1.796-103.303
				c-6.914-31.33-21.302-60.436-43.298-83.954c-19.667-21.028-47.605-36.729-77.088-29.08c-29.108,7.552-54.764,35.948-69.884,60.74
				c-37.873,62.104-22.026,141.75-11.599,209.116c4.995,32.275,9.125,64.652,14.794,96.823c1.984,11.256,21.438,8.801,20.155-2.728
				c-3.613-32.458-6.544-64.982-10.513-97.402c-4.369-35.684-9.677-71.501-8.665-107.552c1.024-36.486,8.258-72.991,32.897-101.111
				c10.176-11.614,23.171-25.12,38.218-29.866c15.952-5.031,31.253,2.697,43.197,13.015c23.551,20.344,37.706,49.635,44.424,79.543
				c7.885,35.099,3.523,70.828,0.396,106.307c-5.572,63.228-43.135,114.022-85.564,158.713
				c-41.933,44.167-89.786,82.071-132.826,125.081c-22.575,22.559-43.761,47.567-55.147,77.789
				c-10.037,26.64-9.906,56.928-4.335,84.586c10.647,52.858,53.689,96.221,105.382,110.602
				c58.829,16.366,138.499,7.684,176.701-44.964c18.627-25.671,25.064-50.936,19.447-81.825
				c-2.661-14.634-4.661-28.018-14.429-39.868c-9.376-11.375-22.839-21.692-36.127-28.049
				c-49.272-23.574-117.858-18.33-147.486,32.882c-4.431,7.658-10.382,37.322-18.903,38.282c-4.866,0.549-4.23-0.963-5.284-6.051
				c-0.582-2.807-0.67-5.873-0.745-8.708c-0.195-7.271,0.691-14.464,2.693-21.447c8.871-30.951,30.027-53.667,57.897-69.247
				c51.011-28.518,118.279-20.03,164.408,14.55c48.977,36.715,56.707,108.834,30.17,161.845
				c-27.564,55.063-91.641,89.733-151.711,93.497c-56.718,3.554-118.353-11.24-161.447-49.768
				c-22.776-20.363-39.476-43.899-52.685-71.433c-16.084-33.527-12.532-74.886-1.653-109.023
				c5.217-16.371,8.76-33.525,16.351-49.034c7.418-15.155,17.35-29.458,27.209-43.111c20.929-28.98,46.3-52.48,72.45-76.563
				c48.42-44.593,96.711-96.298,123.32-157.384c12.536-28.78,20.116-60.354,18.548-91.9c-1.193-24.007-7.039-56.832-24.019-75.258
				c-15.715-17.053-33.209-2.13-38.539,14.852c-8.663,27.605-7.443,59.812-6.21,88.294c1.453,33.575,6.157,66.578,14.033,99.233
				C616.327,365.767,631.512,361.301,629.608,351.075L629.608,351.075z"/>
		</g>
		<g>
			<path fill="#2B2A30" d="M582.162,502.305c2.008,15.746,3.58,31.548,5.406,47.316c1.515,13.082,2.356,27.99,10.57,38.75
				c3.023,3.96,9.637,4.047,11.147-1.457c3.527-12.857,0.034-27.019-1.926-39.971c-2.392-15.805-5.182-31.311-9.13-46.812
				C596.021,491.461,580.971,492.969,582.162,502.305L582.162,502.305z"/>
		</g>
		<g>
			<path fill="#2B2A30" d="M632.821,453.955c0.749,20.226,3.434,40.135,6.249,60.161c3.119,22.192,5.565,44.728,14.42,65.487
				c1.632,3.826,8.563,2.926,9.18-1.2c3.229-21.571-0.632-43.023-4.181-64.343c-3.452-20.735-6.887-41.456-10.586-62.146
				C646.375,443.37,632.504,445.381,632.821,453.955L632.821,453.955z"/>
		</g>
		<g>
			<path fill="#2B2A30" d="M604.519,643.084c-1.7,31.839,5.704,65.517,9.547,97.112c1.8,14.799,3.86,29.571,5.99,44.326
				c2.156,14.936,3.333,32.415,12.595,44.815c3.714,4.973,11.707,4.841,13.639-1.783c4.09-14.017,0.326-29.435-2-43.579
				c-2.726-16.579-5.123-33.21-7.811-49.795c-5.044-31.117-7.732-65.157-20.46-94.212
				C613.371,633.927,604.813,637.574,604.519,643.084L604.519,643.084z"/>
		</g>
		<g>
			<path fill="#2B2A30" d="M657.438,641.923c-2.437,13.063,0.385,26.13,2.253,39.152c2.088,14.551,4.116,29.108,6.279,43.648
				c2.095,14.085,4.028,28.194,6.148,42.275c2.229,14.81,4.223,32.879,13.106,45.331c3.15,4.416,9.434,3.721,11.279-1.474
				c9.05-25.484-2.042-61.455-6.015-87.506c-2.083-13.663-4.31-27.292-6.673-40.909c-2.475-14.264-3.698-29.75-10.902-42.538
				C669.539,633.911,658.802,634.614,657.438,641.923L657.438,641.923z"/>
		</g>
		<g>
			<path fill="#2B2A30" d="M641.556,888.837c7.094,52.12,18.083,119.52-18.958,163.368c-15.968,18.903-44.003,31.443-67.691,19.393
				c-10.41-5.296-19.516-16.754-22.428-28.196c-1.515-5.952-2.306-16.048,2.343-20.983c3.556-3.775,9.874-4.575,14.552-6.589
				c7.657-3.296,7.474-16.59,0-19.95c-15.996-7.191-32.577,2.432-40.189,17.446c-7.971,15.723-5.379,35.496,2.597,50.601
				c18.324,34.702,55.267,46.282,90.571,29.983c31.131-14.373,52.221-43.809,60.798-76.478c11.78-44.868,1.52-88.358-8.588-132.183
				C652.559,876.559,640.423,880.515,641.556,888.837L641.556,888.837z"/>
		</g>
		<g>
			<path fill="#2B2A30" d="M541.05,1007.256c20.086,19.099,51.543,8.112,60.594-16.903c9.434-26.074-7.544-52.536-30.797-64.136
				c-27.003-13.472-60.361-6.901-83.507,11.209c-26.016,20.356-37.898,53.151-38.59,85.445c-0.67,31.242,9.383,63.475,29.183,87.833
				c19.091,23.486,49.231,36.206,79.023,38.722c34.942,2.95,69.033-5.494,98.684-24.208c25.29-15.961,43.955-44.869,54.912-72.247
				c24.448-61.087,13.972-123.847-0.037-186.27c-2.64-11.765-19.437-6.516-17.713,4.883c6.04,39.924,18.214,79.686,14.994,120.473
				c-3.307,41.895-25.197,89.559-61.335,112.711c-39.203,25.116-101.357,35.221-140.316,3.492
				c-36.478-29.708-42.327-94.055-18.308-132.744c13.844-22.299,43.328-38.534,69.583-28.938
				c12.063,4.409,24.068,15.529,24.48,29.173c0.496,16.434-16.771,26.112-31.198,18.996
				C542.948,990.923,534.154,1000.699,541.05,1007.256L541.05,1007.256z"/>
		</g>
	</g>
</g>
</svg>
