<?xml version="1.0" encoding="utf-8"?>
<!-- Designed by Vexels.com - 2020 All Rights Reserved - https://vexels.com/terms-and-conditions/  -->
<svg version="1.1" id="Capa_1" xmlns="http://www.w3.org/2000/svg" xmlns:xlink="http://www.w3.org/1999/xlink" x="0px" y="0px"
	 viewBox="0 0 1200 1200" enable-background="new 0 0 1200 1200" xml:space="preserve">
<g>
	<g>
		<path fill="#AEDFE6" d="M1052.169,571.164c-2.439-55.548-3.83-111.128-4.998-166.714c-2.206-104.952-2.3-209.935-4.141-314.873
			c-52.054,7.84-106.509,7.048-158.802,11.486c-54.862,4.656-109.636,10.374-164.263,17.271
			c-57.211,7.223-114.262,15.649-171.088,25.454c-28.166,4.86-56.278,10.009-84.434,14.926
			c-23.925,4.178-48.282,10.552-72.614,12.421c16.947,109.532,18.91,223.463,23.4,333.836c2.419,59.472,4.008,118.977,4.764,178.494
			c0.751,59.062-3.47,119.748,1.615,178.557c1.222,14.142-15.177,19.771-25.803,14.807c-62.465-29.185-156.473-37.088-204.59,23.588
			c-37.579,47.389-38.254,127.659,1.968,172.132c11.158,12.336,22.045,17.84,37.703,22.058c16.893,4.55,30.837,14.51,48.504,16.241
			c35.421,3.473,75.152-3.019,102.613-26.782c60.333-52.205,83.752-130.49,96.451-206.233c7.402-92.406,0.207-181.967-5.771-274.135
			c-2.156-33.248-2.911-66.595-4.15-99.886c-0.639-17.161-1.328-34.32-2.11-51.474c-0.767-16.82-5.072-36.801,1.843-52.735
			c10.06-23.182,32.296-23.959,53.597-27.057c30.425-4.425,60.849-8.85,91.274-13.274c79.625-11.58,159.242-23.206,238.856-34.856
			c24.158-3.535,48.313-7.098,72.475-10.605c6.267-0.91,12.938-2.39,19.238-1.928c35.795,2.621,36.667,38.36,38.256,65.836
			c4.604,79.66,10.347,159.293,11.596,239.099c0.982,62.826-3.466,123.042-12.541,185.128c-1.495,10.227-15.312,14.159-23.18,9.43
			c-64.909-39.007-158.838-36.002-210.89,23.98c-45.942,52.942-51.807,148.068-1.063,198.676
			c14.623,14.585,30.524,16.482,49.419,22.159c17.094,5.136,32.294,11.298,50.628,10.678c37.955-1.285,78.394-16.354,107.019-41.516
			c58.927-51.798,77.725-140.108,90.525-213.623c0.513-2.944,1.911-5.134,3.784-6.684c2.131-42.43,7.754-84.612,8.773-127.154
			C1056.888,642.145,1053.734,606.814,1052.169,571.164z M951.834,219.1c-4.932,8.652-12.184,6.618-22.27,7.762
			c-21.706,2.463-43.404,4.916-65.089,7.554c-40.323,4.904-80.609,9.944-120.877,15.284c-40.29,5.343-80.584,10.661-120.877,15.981
			c-21.673,2.862-43.37,5.4-65.087,7.904c-14.952,1.724-37.671,8.647-54.304,6.955c-3.822-9.979-5.556-23.237-7.075-34.859
			c72.511-6.536,144.114-22.554,215.927-33.861c77.872-12.261,155.809-20.253,234.468-24.265
			C950.663,198.243,955.232,213.138,951.834,219.1z"/>
	</g>
	<g>
		<g>
			<path fill="#2B2A30" d="M359.726,157.976c4.756,117.27,17.527,234.212,22.215,351.58c2.313,57.908,3.844,115.848,4.577,173.798
				c0.743,58.733,4.679,120.149-2.067,178.557c8.378-4.808,16.757-9.616,25.135-14.423c-58.01-43.043-142.453-42.946-204.658-8.583
				c-56.284,31.093-76.629,85.608-81.86,146.874c-5.454,63.883,31.3,127.974,94.346,145.592
				c13.803,3.857,25.507,12.157,39.641,15.32c18.25,4.085,38.006,3.906,56.501,2.049c34.827-3.496,66.22-13.822,92.757-37.17
				c63.641-55.992,94.739-149.915,101.545-232.143c1.489-17.985-28.839-22.37-31.81-4.305
				c-12.61,76.664-35.934,156.253-97.036,209.146c-27.554,23.852-67.38,30.384-102.928,26.912
				c-17.722-1.731-31.684-11.695-48.621-16.258c-15.723-4.235-26.695-9.784-37.898-22.172c-40.379-44.646-39.728-125.2-1.968-172.76
				c48.285-60.816,142.464-52.935,205.127-23.657c10.352,4.836,26.326-0.647,25.135-14.423
				c-5.084-58.809-0.863-119.495-1.614-178.557c-0.757-59.516-2.345-119.022-4.765-178.494
				c-4.736-116.406-8.429-235.077-25.609-350.423C383.656,139.566,359.124,143.145,359.726,157.976L359.726,157.976z"/>
		</g>
		<g>
			<path fill="#2B2A30" d="M1040.169,811.617c-11.751,73.509-31.477,162.386-90.212,213.937
				c-28.739,25.224-69.236,40.366-107.332,41.646c-18.379,0.617-33.611-5.545-50.746-10.694c-18.97-5.7-34.931-7.627-49.615-22.273
				c-50.912-50.78-45.047-146.19,1.063-199.303c52.192-60.119,146.348-63.159,211.428-24.049c7.647,4.596,21.075,0.774,22.528-9.165
				c9.069-62.046,13.507-122.225,12.525-185.011c-1.249-79.805-6.991-159.439-11.596-239.099
				c-1.573-27.216-2.314-62.764-37.813-65.392c-6.259-0.463-12.893,1.009-19.119,1.912c-24.163,3.508-48.317,7.07-72.476,10.605
				c-79.614,11.65-159.232,23.276-238.856,34.856c-30.424,4.425-60.849,8.85-91.273,13.275
				c-21.127,3.073-43.275,3.785-53.287,26.747c-6.921,15.873-2.592,35.857-1.827,52.617c0.783,17.155,1.471,34.314,2.11,51.474
				c1.24,33.292,1.994,66.638,4.15,99.886c6.015,92.736,13.278,182.83,5.648,275.841c-1.473,17.964,29.311,22.439,31.81,4.305
				c10.17-73.78,7.143-147.1,2.926-221.162c-3.383-59.424-4.25-119.09-6.801-178.569c-0.582-13.577-9.736-63.418,0.347-70.67
				c2.666-1.918,10.534-1.565,13.678-2.032c22.903-3.403,45.806-6.805,68.709-10.208c73.977-10.99,147.955-21.974,221.941-32.9
				c29.683-4.383,59.365-8.766,89.048-13.15c5.72-0.845,37.33-9.968,42.14-6.223c5.619,4.375,2.948,48.007,3.434,56.45
				c1.228,21.319,2.29,42.634,3.142,63.971c1.631,40.859,2.975,81.738,4.027,122.616c0.943,36.655,0.632,73.224,0.351,109.877
				c-0.235,30.698,1.74,61.321-2.515,91.828c7.509-3.055,15.018-6.11,22.528-9.165c-62.627-37.074-143.239-40.201-206.961-3.531
				c-54.79,31.53-80.624,88.404-85.048,149.708c-2.715,37.619,2.526,73.089,25.659,103.864
				c20.599,27.403,40.493,40.18,73.267,48.793c16.508,4.339,31.908,11.383,49.075,13.135c19.587,2,39.661-1.351,58.67-6.023
				c32.786-8.058,63.411-22.771,88.366-45.869c60.467-55.967,86.301-150.011,93.051-229.319
				C1067.572,800.377,1042.544,796.761,1040.169,811.617L1040.169,811.617z"/>
		</g>
		<g>
			<path fill="#2B2A30" d="M1039.412,69.385c2.221,111.625,2.107,223.309,4.454,334.955c1.168,55.587,2.559,111.166,4.997,166.714
				c1.565,35.65,4.719,70.982,3.863,106.724c-1.102,45.958-7.631,91.491-9.261,137.377c-0.375,10.571,16.641,13.212,18.738,2.536
				c26.329-134.089,11.219-274.316,8.352-410.111c-2.38-112.754-3.038-225.821-13.395-338.195
				C1056.13,58.218,1039.181,57.773,1039.412,69.385L1039.412,69.385z"/>
		</g>
		<g>
			<path fill="#2B2A30" d="M380.012,171.076c27.117-0.799,54.331-8.243,81.008-12.901c28.155-4.916,56.269-10.066,84.434-14.926
				c56.865-9.812,113.957-18.242,171.207-25.47c54.627-6.897,109.401-12.615,164.263-17.271
				c56.783-4.819,116.134-3.432,172.169-13.689c21.311-3.901,14.187-33.918-4.806-35.514c-56.078-4.713-115.868,4.501-171.834,9.235
				c-56.322,4.764-112.552,10.649-168.623,17.789c-53.427,6.803-106.705,14.81-159.783,23.943
				c-28.084,4.832-56.171,9.765-84.021,15.817c-29.064,6.315-60.715,10.69-88.17,22.267
				C360.937,146.645,360.731,171.644,380.012,171.076L380.012,171.076z"/>
		</g>
		<g>
			<path fill="#2B2A30" d="M473.216,247.132c79.14-5.112,157.347-23.538,235.544-35.85c81.773-12.875,163.607-21.103,246.282-24.897
				c-5.039-2.89-10.078-5.781-15.117-8.671c3.318,7.857,13.757,33.112,9.048,41.276c-5.033,8.726-12.81,6.757-22.713,7.954
				c-21.693,2.622-43.396,5.167-65.088,7.805c-40.323,4.904-80.609,9.944-120.877,15.284c-40.29,5.343-80.584,10.661-120.877,15.981
				c-21.674,2.862-43.37,5.4-65.088,7.904c-17.795,2.052-46.52,11.471-63.031,5.032c4.053,3.116,8.105,6.233,12.158,9.349
				c-9.109-13.503-10.054-41.547-13.127-57.311c-3.986-20.447-33.903-14.422-34.861,4.718c-1.114,22.254-2.071,57.8,14.435,75.239
				c17.233,18.208,49.778,5.904,70.895,2.544c63.265-10.064,126.666-19.045,190.093-28.032
				c63.41-8.984,126.723-18.494,190.002-28.362c18.127-2.827,43.733-2.072,53.964-20.56c11.35-20.51,4.136-51.847-2.932-72.313
				c-2.5-7.24-8.858-12.991-16.882-12.853c-81.053,1.392-162.073,11.32-242.122,23.571
				c-81.153,12.421-164.307,24.865-242.741,49.749C458.433,228.417,459.804,247.998,473.216,247.132L473.216,247.132z"/>
		</g>
		<g>
			<path fill="#2B2A30" d="M216.421,920.096c-22.085,65.9,18.747,160.461,99.247,152.224c9.12-0.933,15.641-14.566,5.262-19.43
				c-51.527-24.145-94.749-62.993-79.695-125.954C245.107,910.744,221.668,904.437,216.421,920.096L216.421,920.096z"/>
		</g>
		<g>
			<path fill="#2B2A30" d="M762.943,869.138c-18.965,31.841-19.274,71.435-1.178,103.976c21.415,38.508,63.599,53.4,105.831,48.38
				c8.624-1.025,14.229-13.057,4.871-17.983c-26.107-13.742-59.513-20.327-78.054-44.977c-17.552-23.336-20.217-53.331-9.17-79.994
				C790.646,865.501,769.805,857.617,762.943,869.138L762.943,869.138z"/>
		</g>
	</g>
</g>
</svg>
