<?xml version="1.0" encoding="utf-8"?>
<!-- Designed by Vexels.com - 2020 All Rights Reserved - https://vexels.com/terms-and-conditions/  -->
<svg version="1.1" id="Capa_1" xmlns="http://www.w3.org/2000/svg" xmlns:xlink="http://www.w3.org/1999/xlink" x="0px" y="0px"
	 viewBox="0 0 1200 1200" enable-background="new 0 0 1200 1200" xml:space="preserve">
<g>
	<g>
		<path fill="#74A85E" d="M808.131,87.598c-24.82,4.054-49.6,8.351-74.335,12.89c-48.787,8.953-97.431,18.577-145.901,29.106
			c17.48,113.704,19.52,231.931,24.18,346.476c2.52,61.933,4.174,123.901,4.962,185.882c0.782,61.506-3.614,124.704,1.681,185.947
			c1.273,14.727-15.804,20.59-26.87,15.42c-65.05-30.394-162.95-38.624-213.058,24.564c-39.135,49.35-39.838,132.942,2.05,179.256
			c11.619,12.847,22.958,18.578,39.263,22.971c17.592,4.738,32.113,15.109,50.51,16.914c36.887,3.617,78.263-3.145,106.862-27.891
			c62.853-54.387,87.236-135.952,100.458-214.859c10.67-122.392-2.301-244.455-9.152-366.704
			c-5.634-100.54-8.033-201.233-13.322-301.793c-1.024-19.464,20.968-24.404,33.123-15.137
			c43.987-10.214,88.221-19.413,132.491-28.312c19.589-3.938,28.512-5.66,30.606-25.127c0.994-9.243,3.998-20.176,3.335-29.431
			C853.237,72.972,825.665,84.733,808.131,87.598z"/>
	</g>
	<g>
		<g>
			<path fill="#2B2A30" d="M556.874,116.917c4.953,122.124,18.252,243.906,23.135,366.131c2.409,60.305,4.003,120.643,4.766,180.992
				c0.774,61.164,4.872,125.122-2.153,185.947c8.725-5.007,17.45-10.014,26.175-15.02c-60.411-44.825-148.349-44.724-213.128-8.938
				c-58.614,32.38-79.801,89.152-85.248,152.953c-5.68,66.527,32.596,133.271,98.251,151.617
				c14.375,4.017,26.563,12.66,41.281,15.954c19.005,4.254,39.579,4.067,58.839,2.134c36.268-3.641,68.96-14.394,96.596-38.708
				c66.275-58.309,98.66-156.12,105.748-241.751c1.55-18.73-30.033-23.296-33.127-4.483
				c-13.131,79.838-37.422,162.72-101.052,217.802c-28.694,24.839-70.169,31.641-107.188,28.026
				c-18.455-1.802-32.995-12.179-50.634-16.931c-16.373-4.411-27.799-10.189-39.467-23.09
				c-42.05-46.494-41.373-130.382-2.049-179.91c50.284-63.333,148.36-55.126,213.617-24.637c10.78,5.037,27.415-0.674,26.175-15.02
				c-5.295-61.243-0.899-124.441-1.681-185.947c-0.788-61.979-2.442-123.948-4.962-185.881
				c-4.932-121.224-8.778-244.807-26.669-364.927C581.795,97.744,556.248,101.472,556.874,116.917L556.874,116.917z"/>
		</g>
		<g>
			<path fill="#2B2A30" d="M655.079,197.865c5.288,100.561,7.687,201.253,13.322,301.794c6.886,122.87,19.975,245.551,9.008,368.57
				c-1.955,21.934,30.987,20.982,33.729,0c15.951-122.043-0.112-246.072-3.603-368.57c-2.868-100.612-7.021-201.285-12.489-301.794
				C693.654,172.291,653.724,172.11,655.079,197.865L655.079,197.865z"/>
		</g>
		<g>
			<path fill="#2B2A30" d="M678.225,209.338c34.64-4.796,69.063-10.816,103.566-16.504c25.25-4.162,63.238-2.876,84.303-19.119
				c20.337-15.683,24.102-54.3,24.039-78.486c-0.163-62.618-72.854-43.938-111.166-37.853
				c-69.02,10.961-137.607,24.169-205.88,39.075c-23.229,5.072-13.399,40.714,9.826,35.643
				c49.798-10.873,99.784-20.763,149.918-29.962c24.736-4.539,49.516-8.836,74.336-12.89c16.171-2.642,47.998-15.074,47.467,10.616
				c-0.201,9.704-2.304,19.772-3.352,29.431c-2.128,19.626-11.226,21.555-30.948,25.502c-49.594,9.926-99.239,19.858-148.435,31.602
				C656.592,190.047,663.538,211.371,678.225,209.338L678.225,209.338z"/>
		</g>
		<g>
			<path fill="#2B2A30" d="M407.638,910.58c-22.999,68.627,19.523,167.103,103.355,158.525c9.498-0.972,16.288-15.169,5.48-20.234
				c-53.66-25.144-98.671-65.6-82.994-131.167C437.511,900.842,413.103,894.273,407.638,910.58L407.638,910.58z"/>
		</g>
	</g>
</g>
</svg>
